<svg width="25" height="25" viewBox="0 0 25 25" fill="none" xmlns="http://www.w3.org/2000/svg">
<path fill-rule="evenodd" clip-rule="evenodd" d="M12.5 0C5.59646 0 0 5.59646 0 12.5C0 19.4035 5.59646 25 12.5 25C19.4035 25 25 19.4035 25 12.5C25 5.59646 19.4035 0 12.5 0ZM12.5 17.5C12.5 18.8807 11.3807 20 10 20C8.61928 20 7.5 18.8807 7.5 17.5C7.5 16.1212 8.61622 15.0031 9.99433 15L10 15H12.5V17.5ZM9.99433 15C8.61622 14.9969 7.5 13.8788 7.5 12.5C7.5 11.1193 8.61928 10 10 10H12.5V15H10L9.99433 15ZM10 10C8.61928 10 7.5 8.88072 7.5 7.5C7.5 6.11929 8.61928 5 10 5H12.5V10H10ZM12.5 10H15C16.3807 10 17.5 8.88072 17.5 7.5C17.5 6.11929 16.3807 5 15 5H12.5V10ZM15 10C16.3807 10 17.5 11.1193 17.5 12.5C17.5 13.8807 16.3807 15 15 15C13.6193 15 12.5 13.8807 12.5 12.5C12.5 11.1193 13.6193 10 15 10Z" fill="#0B1727"/>
</svg>
