<svg width="191" height="31" viewBox="0 0 191 31" fill="none" xmlns="http://www.w3.org/2000/svg">
<path d="M8.17186 1.40308V28.3248H0.168945V1.40308H8.17186ZM25.2682 9.13152V28.3248H17.2653V9.13152H11.1334V1.40308H31.3865V9.13152H25.2682Z" fill="#0B1727"/>
<path d="M66.9292 21.8559C66.2875 22.5964 65.615 23.3246 64.9117 24.0404C64.2082 24.7564 63.7579 25.6449 63.5605 26.7063C63.4617 27.0026 63.3013 27.2 63.0792 27.2988C62.8571 27.3976 62.6288 27.4901 62.3943 27.5765C62.1598 27.6629 61.9501 27.774 61.7649 27.9097C61.5799 28.0455 61.4873 28.2862 61.4873 28.6317C61.2652 28.8046 61.0308 28.9403 60.784 29.0391C60.5372 29.1378 60.2904 29.1131 60.0436 28.9649C59.6734 28.7676 59.3094 28.6996 58.9515 28.7614C58.5937 28.823 58.2358 28.9279 57.878 29.0761C57.5201 29.2241 57.1561 29.3723 56.7859 29.5204C56.4157 29.6685 56.0208 29.7179 55.6013 29.6685C54.1945 29.8906 52.6952 29.9523 51.1034 29.8536C49.5116 29.755 48.0493 29.3476 46.7166 28.6317C46.8153 28.6071 46.9079 28.5947 46.9943 28.5947C47.0807 28.5947 47.1732 28.5577 47.2719 28.4836C47.2965 28.2615 47.2041 28.1257 46.9943 28.0764C46.7844 28.0271 46.6302 27.9405 46.5315 27.8172C45.5937 27.4469 44.7423 26.9347 43.9771 26.2806C43.2121 25.6264 42.4841 24.9414 41.793 24.2256C41.1514 24.1762 40.6886 23.8677 40.4048 23.2999C40.121 22.7321 39.8186 22.2261 39.4978 21.7818C39.251 21.1894 39.0351 20.5847 38.85 19.9675C38.6649 19.3504 38.6834 18.7332 38.9055 18.1162C38.8067 17.2028 38.7697 16.271 38.7944 15.3207C38.819 14.3703 38.8562 13.4261 38.9055 12.4881L38.6094 12.1919C38.8314 10.8836 39.2448 9.65558 39.8495 8.50769C40.4541 7.35994 41.2007 6.32322 42.0892 5.39759C42.9776 4.47189 43.9771 3.6697 45.0877 2.99086C46.1983 2.3121 47.3707 1.77508 48.6046 1.38019C49.9867 0.93588 51.4058 0.701351 52.8619 0.676679C54.3179 0.652008 55.8111 0.775367 57.3412 1.04698C57.7361 0.99756 58.1433 1.04077 58.5628 1.17654C58.9824 1.31238 59.3773 1.4542 59.7474 1.60238C60.6606 1.99727 61.5305 2.50334 62.3573 3.1205C63.184 3.73751 63.9429 4.43489 64.634 5.21241C65.325 5.98994 65.9359 6.84155 66.4664 7.76725C66.997 8.69287 67.4228 9.64938 67.7436 10.6368C68.3113 12.3894 68.5457 14.2654 68.447 16.2649C68.3483 18.2643 67.8424 20.1279 66.9292 21.8559ZM64.8931 8.63733C64.7451 8.16834 64.5106 7.68696 64.1898 7.1933C63.8689 6.69958 63.4987 6.31702 63.0792 6.04548C63.2766 6.51446 63.5419 6.97111 63.8751 7.41549C64.2082 7.8598 64.5476 8.2671 64.8931 8.63733ZM66.67 14.3395C66.7688 13.7964 66.7564 13.2719 66.633 12.7658C66.5096 12.2598 66.3122 11.797 66.0408 11.3773C66.1148 11.871 66.1888 12.3771 66.2628 12.8954C66.3369 13.4138 66.4726 13.8951 66.67 14.3395ZM57.7484 11.2292C57.7237 10.9824 57.6004 10.7664 57.3782 10.5813C57.1561 10.3961 56.9217 10.39 56.6749 10.5627L52.8988 17.2646C52.7261 17.388 52.6089 17.567 52.5472 17.8015C52.4855 18.036 52.3189 18.1655 52.0474 18.1903C51.8006 17.1535 51.5847 16.1167 51.3996 15.08C51.2145 14.0433 51.0109 12.9942 50.7887 11.9327C50.6407 11.7106 50.5605 11.4514 50.5481 11.1552C50.5358 10.859 50.5049 10.5751 50.4556 10.3035C50.4063 10.0321 50.3198 9.79135 50.1964 9.58157C50.073 9.37171 49.8263 9.24207 49.4561 9.19273C49.2586 9.24207 49.1476 9.35325 49.1229 9.52602C49.0982 9.6988 49.0488 9.83456 48.9748 9.93325C49.4931 11.5378 49.8572 13.1793 50.0668 14.8578C50.2766 16.5364 50.5542 18.1903 50.8998 19.8194C50.9492 20.0909 51.0602 20.3501 51.233 20.597C51.4058 20.8439 51.6649 20.9425 52.0104 20.8932C53.0963 19.3627 54.0835 17.7706 54.972 16.1167C55.8604 14.4629 56.7859 12.8337 57.7484 11.2292ZM98.5438 19.1529C98.1983 20.4365 97.7109 21.7448 97.0816 23.0777C96.4522 24.4107 95.6069 25.5092 94.5458 26.3731C93.8301 26.4719 93.2624 26.7619 92.8429 27.2432C92.4232 27.7246 91.942 28.1627 91.399 28.5577V28.8169C89.9676 29.2118 88.5671 29.5821 87.1973 29.9276C85.8277 30.2733 84.4518 30.2979 83.0698 30.0018C82.823 29.9523 82.7303 29.829 82.7921 29.6314C82.8538 29.434 82.8723 29.2612 82.8476 29.1131C82.971 28.9649 83.1622 28.8971 83.4214 28.9095C83.6805 28.9218 83.8225 28.7922 83.8472 28.5207C83.5263 28.0764 83.1006 27.7863 82.57 27.6505C82.0394 27.5148 81.5396 27.3358 81.0707 27.1137C80.9719 27.1384 80.867 27.2 80.756 27.2988C80.645 27.3976 80.6758 27.4963 80.8486 27.595C80.9966 27.6938 81.1385 27.7863 81.2743 27.8727C81.41 27.9591 81.4902 28.0887 81.5149 28.2615L80.6264 28.4836C80.5771 28.3603 80.5524 28.2306 80.5524 28.0949C80.5524 27.9591 80.4414 27.8665 80.2192 27.8172C79.9477 27.9405 79.7812 28.1319 79.7194 28.3911C79.6578 28.6503 79.4295 28.7181 79.0346 28.5947C78.4423 28.4466 77.9117 28.1751 77.4428 27.7802C76.9738 27.3852 76.4803 27.0767 75.962 26.8545C74.2591 25.5216 72.84 23.8985 71.7047 21.9855C70.5695 20.0725 70.0142 17.9557 70.0389 15.6354L70.409 14.5616C70.4584 14.5864 70.5077 14.611 70.5572 14.6357C70.6065 14.6604 70.6682 14.6604 70.7422 14.6357L70.8163 14.4875L70.409 14.2283C70.9027 13.8334 71.1741 13.3212 71.2235 12.6917C71.2728 12.0623 71.2852 11.4514 71.2605 10.859C71.3839 10.5627 71.4456 10.2357 71.4456 9.87777C71.4456 9.51981 71.4332 9.19273 71.4086 8.89652C71.7294 8.57565 72.0317 8.23623 72.3156 7.87835C72.5994 7.52039 72.9141 7.21797 73.2595 6.97111C73.3583 7.21797 73.3522 7.47718 73.241 7.74871C73.13 8.02025 73.0004 8.28565 72.8524 8.54484C72.7042 8.80397 72.5932 9.06317 72.5192 9.32237C72.4451 9.58157 72.4944 9.83456 72.6672 10.0814C73.1115 9.5877 73.3953 9.03237 73.5187 8.41521C73.6421 7.79812 73.8272 7.20564 74.074 6.6379C74.4935 6.16892 74.9994 5.71847 75.5918 5.2865C76.1841 4.85452 76.5543 4.26824 76.7023 3.52772C77.3934 2.54034 78.3436 1.8307 79.5529 1.39873C80.7622 0.966681 81.9714 0.689014 83.1808 0.565657C84.6122 0.442151 86.0066 0.559452 87.3639 0.917338C88.7213 1.27522 90.0664 1.79983 91.399 2.491C91.5472 2.12071 91.7323 1.78129 91.9543 1.47274C92.1765 1.1642 92.4602 0.911209 92.8058 0.713688C93.0773 0.713688 93.2994 0.775367 93.4722 0.898873C93.3981 1.14566 93.4351 1.40486 93.5832 1.6764C93.7313 1.94793 93.8671 2.21326 93.9905 2.47246C94.1138 2.73166 94.1632 2.97232 94.1385 3.19451C94.1138 3.41663 93.9164 3.60181 93.5462 3.74984L93.6572 4.15722C94.6938 4.99642 95.5884 6.0084 96.3412 7.1933C97.0939 8.37821 97.6862 9.64325 98.1181 10.9885C98.55 12.3339 98.8091 13.7038 98.8955 15.0986C98.9819 16.4932 98.8647 17.8446 98.5438 19.1529ZM90.9548 17.9311C89.7702 16.6475 88.6164 15.3823 87.4936 14.1358C86.3706 12.8893 85.2786 11.5871 84.2173 10.2295C84.0446 10.0321 83.8348 9.88391 83.588 9.78522C83.3413 9.68646 83.1068 9.66171 82.8846 9.71113C82.4651 10.7232 82.3109 11.7723 82.4219 12.8584C82.533 13.9445 82.6255 15.0307 82.6996 16.1167C82.823 16.5117 82.8723 16.9128 82.8476 17.3201C82.823 17.7274 82.8044 18.1285 82.7921 18.5235C82.7798 18.9184 82.8106 19.3011 82.8846 19.6713C82.9586 20.0416 83.1438 20.3995 83.4399 20.745C83.8841 20.8439 84.131 20.8192 84.1803 20.671C84.2296 20.523 84.2235 20.3317 84.1618 20.0971C84.1001 19.8626 84.057 19.6157 84.0323 19.3566C84.0076 19.0974 84.1433 18.9061 84.4394 18.7827C84.8343 18.758 85.2107 18.6654 85.5686 18.505C85.9264 18.3445 86.2843 18.1778 86.6421 18.0051C87 17.8323 87.3701 17.6965 87.7527 17.5978C88.1352 17.4991 88.5362 17.4991 88.9558 17.5978C89.2272 17.7706 89.4679 18.0051 89.6776 18.3014C89.8874 18.5976 90.1774 18.6962 90.5477 18.5976C90.8685 18.4494 91.0042 18.2273 90.9548 17.9311ZM89.326 28.2615C88.7584 28.2368 88.1783 28.243 87.586 28.28C86.9938 28.3171 86.4138 28.3479 85.8462 28.3726L85.8832 28.5577C86.4262 28.6811 86.9938 28.7305 87.586 28.7058C88.1783 28.6811 88.7584 28.533 89.326 28.2615ZM87.8082 16.0797C87.7342 16.5487 87.4441 16.8572 86.9383 17.0054C86.4323 17.1535 85.9696 17.2893 85.55 17.4127C85.4266 17.3633 85.2848 17.3324 85.1243 17.3201C84.9639 17.3078 84.8713 17.3756 84.8467 17.5237C84.7479 17.4743 84.6554 17.4743 84.5691 17.5237C84.4826 17.5732 84.3962 17.6163 84.3099 17.6533C84.2235 17.6903 84.1433 17.7089 84.0693 17.7089C83.9952 17.7089 83.9212 17.6472 83.8472 17.5237C83.7237 16.4623 83.6373 15.4009 83.588 14.3395C83.5387 13.2781 83.551 12.2289 83.625 11.1922C84.3901 11.9327 85.1182 12.7226 85.8092 13.5619C86.5002 14.4012 87.1665 15.2404 87.8082 16.0797ZM127.604 20.708C126.864 22.6581 125.778 24.4415 124.346 26.0584C122.915 27.6752 121.101 28.7799 118.904 29.3723C117.843 29.8166 116.677 30.0758 115.406 30.1498C114.135 30.2239 112.883 30.1436 111.649 29.9092C110.415 29.6747 109.23 29.2736 108.095 28.7058C106.96 28.1381 105.985 27.4346 105.17 26.5953C104.356 25.7561 103.578 24.8242 102.838 23.7998C102.098 22.7754 101.505 21.6954 101.061 20.56C100.987 18.9801 100.839 17.3942 100.617 15.8021C100.395 14.2099 100.444 12.6363 100.765 11.0811C100.987 11.1058 101.166 11.0441 101.302 10.896C101.437 10.7479 101.567 10.5874 101.69 10.4146C101.814 10.2418 101.95 10.0752 102.098 9.91478C102.246 9.75427 102.431 9.66172 102.653 9.63705C102.579 9.78522 102.499 9.92091 102.412 10.0444C102.326 10.1678 102.283 10.3283 102.283 10.5257C102.678 10.3283 103.035 10.0073 103.356 9.56303C103.677 9.11872 103.973 8.69908 104.245 8.30412C104.27 8.2547 104.294 8.18681 104.319 8.10046C104.343 8.01404 104.331 7.94615 104.282 7.89681L103.43 8.52631C103.381 8.3782 103.387 8.26711 103.449 8.19302C103.511 8.119 103.585 8.05112 103.671 7.98936C103.757 7.92769 103.838 7.85981 103.912 7.78579C103.986 7.7117 104.023 7.60061 104.023 7.4525C104.146 7.42783 104.22 7.35374 104.245 7.23031C104.27 7.10695 104.294 6.99578 104.319 6.8971C106.219 5.0211 108.385 3.78072 110.816 3.17597C113.247 2.57122 115.733 2.65144 118.275 3.41663C118.473 3.09575 118.602 2.71932 118.664 2.28735C118.726 1.85538 118.843 1.49128 119.016 1.19508C120.743 1.66406 122.205 2.55275 123.402 3.86101C124.599 5.16927 125.667 6.60089 126.604 8.15601C126.876 7.95849 127.043 7.97083 127.104 8.19302C127.166 8.41521 127.271 8.58798 127.419 8.71142C128.332 10.5381 128.776 12.5004 128.752 14.5987C128.727 16.6968 128.344 18.7332 127.604 20.708ZM127.123 16.524C127.148 15.981 127.172 15.4379 127.197 14.8948C127.222 14.3518 127.073 13.8458 126.753 13.3768C126.728 13.9445 126.765 14.4875 126.864 15.0059C126.962 15.5243 127.049 16.0304 127.123 16.524ZM126.604 20.2267C126.111 21.1153 125.79 22.0163 125.642 22.9296C125.839 22.5101 126.055 22.0842 126.29 21.6523C126.524 21.2202 126.629 20.745 126.604 20.2267ZM117.387 21.5967C117.09 20.8809 116.751 20.1526 116.369 19.4121C115.986 18.6716 115.622 17.9311 115.277 17.1905C115.054 16.9683 114.962 16.7648 114.999 16.5796C115.036 16.3945 115.122 16.2278 115.258 16.0797C115.394 15.9316 115.548 15.7897 115.721 15.6539C115.894 15.5182 116.017 15.3639 116.091 15.191C116.437 14.648 116.875 14.1666 117.405 13.747C117.936 13.3274 118.312 12.809 118.534 12.1919C118.51 11.9944 118.417 11.871 118.257 11.8217C118.096 11.7723 117.93 11.7229 117.757 11.6736C117.115 12.2412 116.498 12.846 115.906 13.4878C115.314 14.1296 114.697 14.7591 114.055 15.3762C114.006 15.0553 114.012 14.7282 114.073 14.395C114.135 14.0617 114.197 13.7223 114.259 13.3768C114.32 13.0312 114.357 12.6917 114.37 12.3585C114.382 12.0253 114.314 11.6982 114.166 11.3773C114.043 11.402 113.919 11.365 113.796 11.2663C113.672 11.1675 113.537 11.1675 113.389 11.2663C113.043 12.2536 112.815 13.3336 112.704 14.5061C112.593 15.6786 112.401 16.7832 112.13 17.82C112.081 18.4124 111.945 18.9862 111.723 19.5417C111.501 20.0971 111.464 20.6463 111.612 21.1894C111.661 21.3375 111.741 21.3992 111.852 21.3745C111.963 21.3498 112.056 21.3128 112.13 21.2635C112.426 21.3128 112.636 21.2511 112.759 21.0783C112.883 20.9055 112.975 20.7019 113.037 20.4674C113.099 20.2328 113.16 19.986 113.222 19.7268C113.284 19.4676 113.389 19.2641 113.537 19.1159C113.685 18.7703 113.722 18.4247 113.648 18.0792C113.574 17.7335 113.623 17.4373 113.796 17.1905C113.969 17.3633 114.117 17.5732 114.24 17.82C114.363 18.0668 114.462 18.289 114.536 18.4864C114.832 18.7333 115.061 19.0357 115.221 19.3936C115.381 19.7515 115.53 20.1033 115.665 20.4488C115.801 20.7944 115.955 21.1215 116.128 21.4301C116.301 21.7386 116.572 21.9793 116.942 22.1521C117.239 22.1027 117.387 21.9176 117.387 21.5967ZM101.727 20.4488L101.024 16.6351C100.753 18.0175 100.987 19.2887 101.727 20.4488ZM159.885 11.4144C160.231 12.7473 160.465 14.142 160.588 15.5984C160.712 17.0548 160.527 18.4494 160.033 19.7824C159.021 22.4482 157.485 24.7069 155.424 26.5583C153.363 28.4096 150.865 29.4958 147.928 29.8166C146.62 29.94 145.324 29.8906 144.041 29.6685C142.757 29.4463 141.511 29.1255 140.302 28.7058C140.03 28.6564 139.771 28.6441 139.524 28.6687C139.277 28.6935 139.031 28.7119 138.784 28.7243C138.537 28.7367 138.29 28.7058 138.044 28.6317C137.797 28.5577 137.55 28.3973 137.303 28.1504C136.81 28.0764 136.335 27.848 135.878 27.4654C135.421 27.0828 134.983 26.7434 134.564 26.4472C133.651 25.6326 132.867 24.6514 132.213 23.5036C131.559 22.3558 131.053 21.1401 130.695 19.8565C130.337 18.5729 130.134 17.2708 130.084 15.9501C130.035 14.6295 130.158 13.3768 130.455 12.1919C130.849 12.0932 131.09 11.8217 131.177 11.3773C131.263 10.933 131.429 10.5504 131.676 10.2295C132.022 10.0321 132.312 9.76668 132.546 9.43339C132.781 9.10018 132.997 8.74842 133.194 8.3782C133.392 8.00783 133.595 7.64382 133.805 7.28593C134.015 6.92797 134.268 6.60089 134.564 6.30468C135.748 4.7743 137.13 3.47838 138.71 2.41691C140.289 1.35552 142.128 0.689016 144.226 0.41748C146.274 0.59033 148.063 0.7877 149.594 1.00989C151.124 1.23208 152.5 1.68873 153.721 2.3799C154.943 3.07108 156.041 4.114 157.016 5.50861C157.991 6.9033 158.947 8.87186 159.885 11.4144ZM151.26 16.8573C151.136 16.5117 151.062 16.1476 151.037 15.7651C151.013 15.3823 150.815 15.1047 150.445 14.9319C149.803 14.3148 149.057 13.9815 148.205 13.9322C147.354 13.8828 146.57 14.0309 145.855 14.3765C145.583 14.3518 145.293 14.3518 144.985 14.3765C144.676 14.4012 144.38 14.395 144.096 14.358C143.812 14.321 143.553 14.2345 143.319 14.0988C143.084 13.963 142.905 13.7223 142.782 13.3768C142.733 13.0806 142.763 12.7967 142.875 12.5252C142.986 12.2536 143.115 11.9944 143.263 11.7476C143.609 11.476 143.991 11.2045 144.411 10.933C144.83 10.6615 145.287 10.5751 145.781 10.6738C146.003 10.6491 146.219 10.6985 146.428 10.8219C146.638 10.9453 146.848 11.0626 147.058 11.1737C147.268 11.2848 147.471 11.3527 147.669 11.3773C147.866 11.402 148.051 11.328 148.224 11.1552C148.372 11.0071 148.44 10.8713 148.428 10.7479C148.415 10.6244 148.36 10.5072 148.261 10.3961C148.162 10.2851 148.063 10.1801 147.965 10.0814C147.866 9.98259 147.792 9.88391 147.743 9.78522C147.397 9.48894 147.021 9.31616 146.614 9.26682C146.206 9.2174 145.805 9.1804 145.41 9.15572C144.547 9.27916 143.769 9.57536 143.078 10.0444C142.387 10.5133 141.844 11.1428 141.449 11.9327C141.4 12.4264 141.375 12.9077 141.375 13.3768C141.375 13.8458 141.536 14.3025 141.857 14.7467C142.276 15.3392 142.751 15.6848 143.282 15.7835C143.812 15.8822 144.368 15.8822 144.948 15.7835C145.528 15.6848 146.12 15.5675 146.725 15.4318C147.329 15.296 147.915 15.2775 148.483 15.3762C148.927 15.4502 149.248 15.6601 149.446 16.0056C149.643 16.3513 149.803 16.7091 149.927 17.0794C149.779 17.7706 149.446 18.326 148.927 18.7456C148.409 19.1652 147.804 19.4368 147.113 19.5603C146.694 19.5356 146.262 19.48 145.818 19.3936C145.373 19.3072 144.979 19.1035 144.633 18.7827C144.436 18.758 144.25 18.7889 144.078 18.8752C143.905 18.9616 143.782 19.1035 143.708 19.3011C143.683 19.77 143.905 20.1095 144.374 20.3193C144.843 20.5291 145.25 20.7203 145.596 20.8932C146.286 21.066 147.008 21.0352 147.761 20.8006C148.514 20.5661 149.186 20.2884 149.779 19.9675C150.174 19.5479 150.562 19.0789 150.945 18.5606C151.327 18.0422 151.432 17.4743 151.26 16.8573ZM139.376 20.3008C139.45 20.202 139.438 20.1279 139.339 20.0786C139.24 20.0292 139.191 19.9428 139.191 19.8194C139.314 19.6466 139.339 19.4985 139.265 19.3751C139.191 19.2516 139.086 19.1282 138.951 19.0049C138.815 18.8814 138.679 18.7518 138.543 18.616C138.408 18.4803 138.352 18.3137 138.377 18.1162C138.007 18.1655 137.754 18.0421 137.618 17.7459C137.482 17.4497 137.303 17.2152 137.081 17.0424C136.908 17.3633 136.803 17.5114 136.766 17.4867C136.729 17.462 136.711 17.3756 136.711 17.2275C136.711 17.0794 136.699 16.9313 136.674 16.7832C136.649 16.6351 136.575 16.5858 136.452 16.6351C136.279 16.7338 136.23 16.8696 136.304 17.0424C136.378 17.2152 136.427 17.3756 136.452 17.5237C136.452 17.6225 136.421 17.7274 136.359 17.8385C136.298 17.9495 136.217 18.0175 136.119 18.0422L136.341 19.3011C136.489 19.4491 136.6 19.6157 136.674 19.8009C136.748 19.986 136.822 20.1711 136.896 20.3563C136.97 20.5414 137.063 20.708 137.174 20.8562C137.285 21.0043 137.464 21.1153 137.71 21.1894C137.908 21.0906 138.081 21.066 138.229 21.1153C138.377 21.1647 138.513 21.2387 138.636 21.3375C138.759 21.4362 138.889 21.5288 139.025 21.6152C139.16 21.7016 139.302 21.7077 139.45 21.6337C139.45 21.3868 139.339 21.2882 139.117 21.3375C138.895 21.3868 138.784 21.2758 138.784 21.0043C138.784 20.8068 138.864 20.671 139.025 20.597C139.185 20.523 139.302 20.4241 139.376 20.3008ZM133.786 21.2264C133.712 20.8562 133.607 20.4611 133.472 20.0416C133.336 19.6219 133.145 19.2764 132.898 19.0049C132.972 19.3751 133.071 19.7763 133.194 20.2082C133.317 20.6401 133.515 20.9795 133.786 21.2264ZM137.229 25.9288C136.908 25.0896 136.353 24.4848 135.563 24.1145C135.785 24.9784 136.341 25.5832 137.229 25.9288ZM190.463 19.1529C190.118 20.4365 189.63 21.7448 189.001 23.0777C188.371 24.4107 187.526 25.5092 186.465 26.3731C185.749 26.4719 185.182 26.7619 184.762 27.2432C184.343 27.7246 183.861 28.1627 183.318 28.5577V28.8169C181.887 29.2118 180.486 29.5821 179.117 29.9276C177.747 30.2733 176.371 30.2979 174.989 30.0018C174.742 29.9523 174.65 29.829 174.711 29.6314C174.773 29.434 174.792 29.2612 174.767 29.1131C174.89 28.9649 175.081 28.8971 175.341 28.9095C175.6 28.9218 175.742 28.7922 175.766 28.5207C175.445 28.0764 175.02 27.7863 174.489 27.6505C173.959 27.5148 173.459 27.3358 172.99 27.1137C172.891 27.1384 172.786 27.2 172.675 27.2988C172.564 27.3976 172.595 27.4963 172.768 27.595C172.916 27.6938 173.058 27.7863 173.193 27.8727C173.329 27.9591 173.409 28.0887 173.434 28.2615L172.546 28.4836C172.496 28.3603 172.472 28.2306 172.472 28.0949C172.472 27.9591 172.361 27.8665 172.138 27.8172C171.867 27.9405 171.7 28.1319 171.639 28.3911C171.577 28.6503 171.349 28.7181 170.954 28.5947C170.362 28.4466 169.831 28.1751 169.362 27.7802C168.893 27.3852 168.399 27.0767 167.881 26.8545C166.178 25.5216 164.759 23.8985 163.624 21.9855C162.489 20.0725 161.933 17.9557 161.958 15.6354L162.328 14.5616C162.378 14.5864 162.427 14.611 162.476 14.6357C162.526 14.6604 162.587 14.6604 162.661 14.6357L162.735 14.4875L162.328 14.2283C162.822 13.8334 163.093 13.3212 163.143 12.6917C163.192 12.0623 163.204 11.4514 163.18 10.859C163.303 10.5627 163.365 10.2357 163.365 9.87777C163.365 9.51981 163.353 9.19273 163.328 8.89652C163.649 8.57565 163.951 8.23623 164.235 7.87835C164.519 7.52039 164.833 7.21797 165.179 6.97111C165.277 7.21797 165.271 7.47718 165.16 7.74871C165.049 8.02025 164.92 8.28565 164.772 8.54484C164.624 8.80397 164.512 9.06317 164.438 9.32237C164.364 9.58157 164.414 9.83456 164.587 10.0814C165.031 9.5877 165.315 9.03237 165.438 8.41521C165.561 7.79812 165.746 7.20564 165.993 6.6379C166.413 6.16892 166.919 5.71847 167.511 5.2865C168.103 4.85452 168.473 4.26824 168.622 3.52772C169.313 2.54034 170.263 1.8307 171.472 1.39873C172.681 0.966681 173.891 0.689014 175.1 0.565657C176.531 0.442151 177.926 0.559452 179.283 0.917338C180.641 1.27522 181.986 1.79983 183.318 2.491C183.466 2.12071 183.651 1.78129 183.874 1.47274C184.096 1.1642 184.38 0.911209 184.725 0.713688C184.996 0.713688 185.219 0.775367 185.391 0.898873C185.317 1.14566 185.354 1.40486 185.502 1.6764C185.651 1.94793 185.786 2.21326 185.91 2.47246C186.033 2.73166 186.083 2.97232 186.058 3.19451C186.033 3.41663 185.836 3.60181 185.465 3.74984L185.577 4.15722C186.613 4.99642 187.508 6.0084 188.26 7.1933C189.013 8.37821 189.605 9.64325 190.037 10.9885C190.469 12.3339 190.728 13.7038 190.815 15.0986C190.901 16.4932 190.784 17.8446 190.463 19.1529ZM182.874 17.9311C181.689 16.6475 180.536 15.3823 179.413 14.1358C178.29 12.8893 177.198 11.5871 176.137 10.2295C175.964 10.0321 175.754 9.88391 175.507 9.78522C175.26 9.68646 175.026 9.66171 174.804 9.71113C174.384 10.7232 174.23 11.7723 174.341 12.8584C174.452 13.9445 174.545 15.0307 174.619 16.1167C174.742 16.5117 174.792 16.9128 174.767 17.3201C174.742 17.7274 174.724 18.1285 174.711 18.5235C174.699 18.9184 174.73 19.3011 174.804 19.6713C174.878 20.0416 175.063 20.3995 175.359 20.745C175.803 20.8439 176.05 20.8192 176.1 20.671C176.149 20.523 176.143 20.3317 176.081 20.0971C176.019 19.8626 175.976 19.6157 175.951 19.3566C175.927 19.0974 176.063 18.9061 176.359 18.7827C176.753 18.758 177.13 18.6654 177.488 18.505C177.846 18.3445 178.203 18.1778 178.561 18.0051C178.919 17.8323 179.289 17.6965 179.672 17.5978C180.054 17.4991 180.455 17.4991 180.875 17.5978C181.147 17.7706 181.387 18.0051 181.597 18.3014C181.807 18.5976 182.097 18.6962 182.467 18.5976C182.788 18.4494 182.923 18.2273 182.874 17.9311ZM181.245 28.2615C180.678 28.2368 180.098 28.243 179.505 28.28C178.913 28.3171 178.333 28.3479 177.765 28.3726L177.802 28.5577C178.345 28.6811 178.913 28.7305 179.505 28.7058C180.098 28.6811 180.678 28.533 181.245 28.2615ZM179.727 16.0797C179.653 16.5487 179.363 16.8572 178.857 17.0054C178.352 17.1535 177.889 17.2893 177.469 17.4127C177.346 17.3633 177.204 17.3324 177.044 17.3201C176.883 17.3078 176.791 17.3756 176.766 17.5237C176.667 17.4743 176.575 17.4743 176.488 17.5237C176.402 17.5732 176.315 17.6163 176.229 17.6533C176.143 17.6903 176.063 17.7089 175.988 17.7089C175.914 17.7089 175.84 17.6472 175.766 17.5237C175.643 16.4623 175.557 15.4009 175.507 14.3395C175.458 13.2781 175.47 12.2289 175.544 11.1922C176.309 11.9327 177.037 12.7226 177.728 13.5619C178.419 14.4012 179.086 15.2404 179.727 16.0797Z" fill="#0076C9"/>
</svg>
