<svg width="22" height="23" viewBox="0 0 22 23" fill="none" xmlns="http://www.w3.org/2000/svg">
<path d="M21.0004 16.4201V19.4201C21.0016 19.6986 20.9445 19.9743 20.8329 20.2294C20.7214 20.4846 20.5577 20.7137 20.3525 20.902C20.1473 21.0902 19.905 21.2336 19.6412 21.3228C19.3773 21.412 19.0978 21.4452 18.8204 21.4201C15.7433 21.0857 12.7874 20.0342 10.1904 18.3501C7.77425 16.8148 5.72576 14.7663 4.19042 12.3501C2.5004 9.7413 1.44866 6.77109 1.12042 3.6801C1.09543 3.40356 1.1283 3.12486 1.21692 2.86172C1.30555 2.59859 1.44799 2.35679 1.63519 2.15172C1.82238 1.94665 2.05023 1.78281 2.30421 1.67062C2.5582 1.55843 2.83276 1.50036 3.11042 1.5001H6.11042C6.59573 1.49532 7.06621 1.66718 7.43418 1.98363C7.80215 2.30008 8.0425 2.73954 8.11042 3.2201C8.23704 4.18016 8.47187 5.12282 8.81042 6.0301C8.94497 6.38802 8.97408 6.77701 8.89433 7.15098C8.81457 7.52494 8.62928 7.86821 8.36042 8.1401L7.09042 9.4101C8.51398 11.9136 10.5869 13.9865 13.0904 15.4101L14.3604 14.1401C14.6323 13.8712 14.9756 13.6859 15.3495 13.6062C15.7235 13.5264 16.1125 13.5556 16.4704 13.6901C17.3777 14.0286 18.3204 14.2635 19.2804 14.3901C19.7662 14.4586 20.2098 14.7033 20.527 15.0776C20.8441 15.4519 21.0126 15.9297 21.0004 16.4201Z" stroke="#0B1727" stroke-width="2" stroke-linecap="round" stroke-linejoin="round"/>
</svg>
